<svg width="140" height="140" viewBox="0 0 140 140" fill="none" xmlns="http://www.w3.org/2000/svg">
<g clip-path="url(#clip0)">
<path d="M140 30.5707C140 29.5707 139.286 28.7135 138.429 28.5707C138 28.4278 96.8573 17.5707 71.2859 0.427813C70.5716 -0.000758588 69.5716 -0.000758588 68.8573 0.427813C43.143 17.4278 2.00016 28.4278 1.57159 28.5707C0.714447 28.7135 0.000161628 29.5707 0.000161628 30.5707C0.000161628 31.285 -1.14269 106.999 69.0002 139.856C69.4287 139.999 69.7144 139.999 70.0002 139.999C70.2859 139.999 70.5716 139.856 70.8573 139.856C141.143 106.999 140 31.285 140 30.5707ZM70.0002 135.428C9.00016 106.285 4.71445 43.1421 4.42873 32.285C12.2859 30.1421 46.4287 20.1421 70.0002 4.85638C93.5716 20.1421 127.714 30.1421 135.572 32.285C135.286 43.1421 131 106.285 70.0002 135.428Z" fill="#3BC3FC"/>
<path d="M41.5715 70C41.5715 85.7143 54.2858 98.4286 70.0001 98.4286C85.7144 98.4286 98.4287 85.7143 98.4287 70C98.4287 54.2858 85.7144 41.5715 70.0001 41.5715C54.2858 41.5715 41.5715 54.2858 41.5715 70ZM94.0001 70C94.0001 83.2858 83.143 94 70.0001 94C56.7144 94 46.0001 83.1429 46.0001 70C46.0001 56.7143 56.8572 46 70.0001 46C83.2858 46 94.0001 56.7143 94.0001 70Z" fill="#3BC3FC"/>
<path d="M50.2856 70C50.2856 80.8571 59.1428 89.7143 69.9999 89.7143C80.8571 89.7143 89.7142 80.8571 89.7142 70C89.7142 59.1428 80.8571 50.2857 69.9999 50.2857C59.1428 50.4286 50.2856 59.2857 50.2856 70ZM85.2856 70C85.2856 78.4286 78.4285 85.2857 69.9999 85.2857C61.5714 85.2857 54.7142 78.5714 54.7142 70C54.7142 61.5714 61.5714 54.7143 69.9999 54.7143C78.4285 54.7143 85.2856 61.5714 85.2856 70Z" fill="#3BC3FC"/>
<path d="M67.7145 62C67.0002 62.2858 66.5716 62.7143 66.0002 63.1429C65.5716 63.5715 65.1431 64.1429 65.0002 64.5715C64.7145 65.1429 64.7145 65.7143 64.7145 66.2858C64.7145 67.1429 64.8573 67.7143 65.1431 68.2858C65.4288 68.8572 65.7145 69.2858 66.1431 69.5715C66.5716 69.8572 67.0002 70.1429 67.5716 70.4286C68.1431 70.5715 68.5716 70.8572 69.1431 71L68.5716 74.8572C68.2859 74.7143 68.0002 74.7143 67.7145 74.5715C67.4288 74.4286 67.2859 74.2858 67.0002 74.1429C66.8574 74 66.5716 73.8572 66.4288 73.8572C66.2859 73.7143 66.1431 73.7143 65.8573 73.7143C65.7145 73.7143 65.5716 73.7143 65.4288 73.8572C65.2859 74 65.1431 74 65.1431 74.1429L64.1431 75.7143C64.7145 76.1429 65.2859 76.5715 66.1431 77C66.8573 77.2858 67.7145 77.5715 68.5716 77.7143L68.2859 80H69.5716C69.8574 80 70.0002 79.8572 70.1431 79.7143C70.2859 79.5715 70.4288 79.4286 70.4288 79.1429L70.5716 77.7143C71.4288 77.7143 72.1431 77.4286 72.8573 77.1429C73.5716 76.8572 74.1431 76.4286 74.5716 76C75.0002 75.5715 75.4288 75 75.5716 74.4286C75.8574 73.8572 75.8573 73.1429 75.8573 72.4286C75.8573 72 75.8573 71.5715 75.7145 71.1429C75.5716 70.8572 75.4288 70.4286 75.2859 70.1429C75.1431 69.8572 74.8574 69.5715 74.5716 69.4286C74.2859 69.2858 74.0002 69 73.7145 68.8572C73.4288 68.7143 73.0002 68.5715 72.7145 68.4286C72.4288 68.2858 72.0002 68.1429 71.7145 68.1429L72.1431 64.2858C72.4288 64.2858 72.5716 64.4286 72.8573 64.5715C73.0002 64.7143 73.2859 64.7143 73.4288 64.8572C73.5716 65 73.7145 65 73.8574 65C74.0002 65 74.1431 65.1429 74.2859 65.1429C74.4288 65.1429 74.5716 65.1429 74.7145 65C74.8573 64.8572 75.0002 64.7143 75.1431 64.5715L76.0002 63.4286C75.5716 63 75.1431 62.7143 74.5716 62.4286C74.0002 62.1429 73.2859 61.8572 72.5716 61.7143L72.8573 59.5715H71.5716C71.2859 59.5715 71.1431 59.7143 71.0002 59.8572C70.8574 60 70.7145 60.1429 70.7145 60.4286L70.0002 61.5715C69.1431 61.5715 68.2859 61.7143 67.7145 62ZM69.2859 67.5715C68.8573 67.4286 68.4288 67.1429 68.1431 66.8572C67.8574 66.5715 67.7145 66.2858 67.7145 65.8572C67.7145 65.7143 67.7145 65.4286 67.8573 65.2858C67.8573 65.1429 68.0002 65 68.1431 64.8572C68.2859 64.7143 68.4288 64.5715 68.7145 64.5715C69.0002 64.4286 69.1431 64.4286 69.5716 64.2858L69.2859 67.5715ZM71.0002 71.2858C71.4288 71.4286 71.8574 71.7143 72.0002 71.8572C72.2859 72.1429 72.4288 72.4286 72.4288 72.8572C72.4288 74 71.8574 74.5715 70.5716 74.8572L71.0002 71.2858Z" fill="#3BC3FC"/>
</g>
<defs>
<clipPath id="clip0">
<rect width="140" height="140" fill="white"/>
</clipPath>
</defs>
</svg>
