<svg width="150" height="140" viewBox="0 0 150 140" fill="none" xmlns="http://www.w3.org/2000/svg">
<g clip-path="url(#clip0)">
<path d="M93.0274 115.213C93.0274 115.213 92.8744 115.213 93.0274 115.213C79.5629 115.213 67.3225 110.011 58.2952 100.678C48.9618 91.0382 44.2187 78.1858 44.5247 64.2623C45.2897 38.4044 65.1804 19.4317 91.8034 19.1257C94.2514 19.1257 96.6995 19.2787 99.1476 19.4317C107.869 20.5027 116.131 23.7158 123.628 29.377C134.645 37.4863 141.377 50.7978 141.683 65.1803C141.989 78.7978 136.94 91.3443 127.76 100.831C118.732 110.164 106.339 115.213 93.0274 115.213ZM92.5684 22.3388C92.4154 22.3388 92.1094 22.3388 91.9564 22.3388C67.1695 22.6448 48.5028 40.2404 47.7378 64.4153C47.2788 77.4208 51.8689 89.5082 60.5902 98.5355C69.0055 107.257 80.4809 112.153 92.8744 112.153H93.0274C105.421 112.153 117.049 107.41 125.465 98.6885C134.186 89.8142 138.776 78.0328 138.47 65.3333C138.164 52.0218 131.891 39.4754 121.792 31.9781C114.754 26.7759 106.951 23.7158 98.8416 22.6448C96.6995 22.4918 94.7105 22.3388 92.5684 22.3388Z" fill="#3BC3FC"/>
<path d="M33.8142 35.3443H30.142C29.224 35.3443 28.459 34.5792 28.459 33.6612C28.459 32.7432 29.224 31.9781 30.142 31.9781H33.8142C36.1093 31.9781 36.1093 31.9781 36.5683 31.9781C37.0273 31.9781 37.6393 31.8251 39.3224 31.6721C40.2404 31.6721 41.0054 32.2841 41.0054 33.2022C41.0054 34.1202 40.3934 34.8852 39.4754 34.8852C37.7923 35.0382 37.3333 35.0382 36.8743 35.1912C36.2623 35.3443 36.1093 35.3443 33.8142 35.3443Z" fill="#3BC3FC"/>
<path d="M27.235 52.9399C25.7049 52.9399 25.2459 52.9399 24.7869 52.7869C24.6339 52.7869 24.3279 52.7869 23.4098 52.7869C22.3388 52.7869 21.2678 52.7869 20.1967 52.9399C19.2787 52.9399 18.5137 52.3279 18.5137 51.4099C18.5137 50.4919 19.1257 49.7268 20.0437 49.7268C21.1148 49.7268 22.1858 49.5738 23.4098 49.5738C24.9399 49.5738 25.3989 49.5738 25.8579 49.7268C26.0109 49.7268 26.3169 49.7268 27.235 49.7268C29.9891 49.7268 32.2842 49.5738 34.2732 49.1148C35.1913 48.9618 35.9563 49.5738 36.1093 50.4919C36.2623 51.4099 35.6503 52.1749 34.7323 52.3279C32.5902 52.7869 30.2951 52.9399 27.235 52.9399Z" fill="#3BC3FC"/>
<path d="M34.7322 71.3005C24.7869 71.3005 20.6557 71.3005 10.7104 70.8415C9.79232 70.8415 9.1803 70.0765 9.1803 69.1585C9.1803 68.2404 9.94532 67.6284 10.8634 67.6284C20.8087 68.0874 24.7869 68.0874 34.7322 68.0874C35.6502 68.0874 36.4153 68.8525 36.4153 69.7705C36.2623 70.6885 35.4972 71.3005 34.7322 71.3005Z" fill="#3BC3FC"/>
<path d="M17.1366 91.4973C12.6994 91.4973 8.7213 91.3443 5.20217 91.1913C4.28414 91.1913 3.67212 90.4262 3.67212 89.5082C3.67212 88.5902 4.59015 87.9781 5.35518 87.9781C8.8743 88.2842 12.6994 88.2842 17.1366 88.2842C20.9617 88.2842 23.4098 88.1312 25.7049 88.1312C28.153 87.9781 30.6011 87.9781 34.5792 87.9781C35.4973 87.9781 36.2623 88.7432 36.2623 89.6612C36.2623 90.5792 35.4973 91.3443 34.5792 91.3443C30.6011 91.3443 28.153 91.4973 25.8579 91.4973C23.5628 91.4973 21.1147 91.4973 17.1366 91.4973Z" fill="#3BC3FC"/>
<path d="M1.68306 110.623C0.765027 110.623 0 109.858 0 108.94C0 108.022 0.765027 107.257 1.68306 107.257C16.5246 107.257 25.3989 106.951 41.1585 105.574C42.0765 105.574 42.8415 106.186 42.8415 107.104C42.8415 108.022 42.2295 108.787 41.3115 108.787C25.5519 110.164 16.6776 110.623 1.68306 110.623Z" fill="#3BC3FC"/>
<path d="M57.377 47.5847C54.9289 47.5847 52.7869 46.5137 51.4098 44.8306C50.9508 44.0656 50.9508 43.1476 51.7158 42.5355C52.4809 42.0765 53.3989 42.0765 54.0109 42.8415C54.7759 43.7596 56 44.3716 57.377 44.3716C59.0601 44.3716 61.3552 43.9126 61.3552 39.3224C61.3552 37.7924 60.8962 35.8033 60.4371 35.4973C59.6721 35.0383 59.5191 33.9672 59.9781 33.2022C60.4371 32.4372 61.5082 32.2842 62.2732 32.7432C64.4153 34.2732 64.5683 39.1694 64.5683 39.1694C64.5683 44.5246 61.9672 47.5847 57.377 47.5847Z" fill="#3BC3FC"/>
<path d="M74.8198 46.0547C74.0547 46.0547 73.2897 45.4427 73.2897 44.6776C72.8307 41.6175 72.8307 38.4044 72.6777 35.4973C72.0657 35.9563 71.3006 36.5684 70.5356 37.0274C69.7706 37.4864 68.6995 37.1804 68.3935 36.4153C67.9345 35.6503 68.2405 34.5793 69.0055 34.2733C69.9236 33.8143 70.6886 33.0492 71.6066 32.2842C72.0657 31.8252 72.6777 31.3662 73.2897 30.9071C73.7487 30.6011 74.3607 30.4481 74.9728 30.7541C75.5848 31.0602 75.8908 31.5192 75.8908 32.1312C75.8908 33.2022 75.8908 34.1203 76.0438 35.1913C76.0438 38.4044 76.1968 41.3115 76.6558 44.3716C76.8088 45.2897 76.1968 46.0547 75.2788 46.2077C74.9728 46.0547 74.9728 46.0547 74.8198 46.0547Z" fill="#3BC3FC"/>
<path d="M86.4481 45.9017C85.6831 45.9017 84.9181 45.2897 84.9181 44.5246C84.7651 43.4536 84.7651 42.2296 84.7651 40.8525C84.7651 39.3225 84.9181 37.7924 84.9181 36.2624C84.9181 35.6503 84.9181 35.1913 85.0711 34.5793C84 35.4973 82.776 36.2624 81.3989 37.0274C80.6339 37.4864 79.5629 37.0274 79.2569 36.2624C78.7979 35.4973 79.2569 34.4263 80.0219 34.1203C82.164 33.0492 84 31.3662 85.6831 29.8361C86.1421 29.3771 86.7541 29.2241 87.3662 29.5301C87.9782 29.8361 88.2842 30.2951 88.2842 30.9072C88.2842 31.2132 88.2842 31.5192 88.2842 31.8252C88.2842 33.3553 88.1312 34.8853 88.1312 36.4154C87.9782 37.9454 87.9782 39.3225 87.9782 40.8525C87.9782 42.0766 87.9782 43.1476 88.1312 44.0656C88.2842 44.9837 87.6722 45.7487 86.7541 45.9017C86.6011 45.9017 86.6011 45.9017 86.4481 45.9017Z" fill="#3BC3FC"/>
<path d="M100.219 45.4427C100.066 45.4427 100.066 45.4427 99.9125 45.4427C96.2404 45.2897 93.6393 42.2296 93.3333 37.7924C93.1803 34.7323 94.4043 31.9782 96.5464 30.2951C97.3114 29.6831 98.2294 29.3771 99.4535 29.0711C99.7595 29.0711 100.066 29.0711 100.372 28.9181C102.055 28.9181 103.891 29.6831 105.268 31.0602C106.798 32.5902 107.716 34.5793 107.716 36.8744C107.716 39.3225 106.798 41.6175 105.115 43.3006C103.891 44.8307 102.055 45.4427 100.219 45.4427ZM100.372 32.4372C100.219 32.4372 100.066 32.4372 99.9125 32.4372C99.3005 32.5902 98.8415 32.7432 98.5355 32.8962C97.1584 33.9673 96.3934 35.8033 96.5464 37.6394C96.6994 39.7815 97.7704 42.0766 100.066 42.0766C101.443 42.0766 102.361 41.4645 102.973 41.0055C104.044 40.0875 104.503 38.5574 104.503 37.0274C104.503 35.3443 103.585 34.1203 102.973 33.5083C102.208 32.8962 101.137 32.4372 100.372 32.4372Z" fill="#3BC3FC"/>
<path d="M118.732 44.3716C117.967 44.3716 117.202 43.7596 117.202 42.9946C116.743 39.7815 116.59 37.1804 116.59 35.4973C115.825 36.1093 115.06 36.7214 113.989 37.3334C113.224 37.7924 112.306 37.6394 111.694 36.8744C111.235 36.1093 111.388 35.1913 112.153 34.5793C114.907 32.8962 116.131 31.2132 116.59 30.6011C116.896 30.2951 117.661 29.2241 118.732 29.6831C119.956 30.1421 119.803 31.3662 119.803 31.9782C119.65 33.2022 119.497 36.2623 120.262 42.5356C120.415 43.4536 119.803 44.2186 118.885 44.3716H118.732Z" fill="#3BC3FC"/>
<path d="M130.514 45.2897C127.148 45.2897 124.852 42.2296 124.852 37.9454C124.852 37.3334 124.852 36.8744 125.005 36.2624C125.158 35.3443 125.923 34.7323 126.841 34.8853C127.76 35.0383 128.372 35.8033 128.219 36.7214C128.219 37.0274 128.066 37.4864 128.066 37.7924C128.066 39.3225 128.525 41.9236 130.514 41.9236C130.82 41.9236 130.973 41.9236 131.279 41.7706C132.197 41.6176 132.962 42.0766 133.268 42.9946C133.421 43.9126 132.962 44.6777 132.044 44.9837C131.585 45.1367 130.973 45.2897 130.514 45.2897Z" fill="#3BC3FC"/>
<path d="M54.9289 69.9235C54.1639 69.9235 53.3988 69.3115 53.2458 68.3935C53.0928 67.0164 53.0928 65.4864 53.0928 63.3443C53.0928 62.5793 53.0928 61.8142 53.0928 60.8962V60.7432C52.4808 61.2022 51.7158 61.8142 50.9508 62.2733C50.1857 62.7323 49.2677 62.4263 48.8087 61.6612C48.3497 60.8962 48.6557 59.9782 49.4207 59.5192C51.1038 58.6011 52.3278 57.5301 53.7049 56C54.1639 55.541 54.9289 55.388 55.5409 55.541C56.1529 55.847 56.612 56.306 56.612 57.0711C56.612 57.5301 56.612 58.1421 56.612 58.6011C56.612 59.3662 56.612 60.1312 56.612 61.0492C56.612 61.8142 56.612 62.5793 56.612 63.3443C56.612 65.3334 56.612 66.7104 56.765 68.0875C56.612 69.0055 55.8469 69.9235 54.9289 69.9235Z" fill="#3BC3FC"/>
<path d="M69.0054 68.3934C68.8524 68.3934 68.8524 68.3934 69.0054 68.3934C65.4863 68.3934 62.5792 65.4863 62.4262 61.6612C62.2732 59.2131 63.3442 56.612 65.3333 55.0819L65.4863 54.9289C65.6393 54.7759 65.9453 54.4699 66.4043 54.3169C67.3223 53.8579 68.2404 53.7049 69.0054 53.5519H69.1584C70.8415 53.5519 72.5245 54.3169 73.7486 55.541C75.1256 56.918 75.8906 58.9071 75.8906 61.0492C75.8906 63.0382 75.1256 65.0273 73.5956 66.4043C72.2185 67.6284 70.5354 68.3934 69.0054 68.3934ZM67.6284 57.071C67.6284 57.071 67.6284 57.224 67.6284 57.071C67.4753 57.224 67.3223 57.377 67.3223 57.377C66.2513 58.2951 65.4863 59.8251 65.6393 61.3552C65.7923 63.3442 67.1693 65.0273 69.0054 65.0273C69.7704 65.0273 70.5354 64.7213 71.3005 63.9563C72.0655 63.1912 72.5245 62.1202 72.5245 60.8961C72.5245 59.2131 71.9125 58.2951 71.3005 57.683C70.5354 56.918 69.4644 56.612 68.8524 56.612C68.5464 56.765 68.0874 56.918 67.6284 57.071Z" fill="#3BC3FC"/>
<path d="M86.9071 70.3825C86.1421 70.3825 85.377 69.7705 85.377 69.0055C85.224 67.6284 85.071 66.0984 85.071 64.2623C85.071 62.7322 85.071 61.3552 85.224 59.9781C85.224 59.6721 85.224 59.3661 85.224 59.0601C84 59.9781 82.6229 60.7432 81.0929 61.0492C80.1749 61.2022 79.4098 60.7432 79.1038 59.8251C78.9508 58.9071 79.4098 58.1421 80.3279 57.8361C82.1639 57.3771 83.694 56 85.377 54.623L85.8361 54.1639C86.2951 53.7049 86.9071 53.7049 87.5191 53.8579C88.1311 54.1639 88.4372 54.623 88.4372 55.235V55.541C88.4372 57.071 88.4372 58.4481 88.2842 59.8251C88.2842 61.2022 88.1311 62.5792 88.1311 63.9563C88.1311 65.4863 88.2841 66.8634 88.4372 68.2404C88.5902 69.1585 87.9781 69.9235 87.0601 70.0765C87.0601 70.3825 86.9071 70.3825 86.9071 70.3825Z" fill="#3BC3FC"/>
<path d="M102.973 68.3934C102.82 68.3934 102.82 68.3934 102.973 68.3934C99.6067 68.3934 96.0875 65.3333 96.0875 60.4371C96.0875 57.224 97.7706 54.3169 100.372 52.7869C100.831 52.4808 101.443 52.3278 102.055 52.3278C104.044 52.1748 106.033 52.9399 107.41 54.3169C109.093 55.847 110.011 57.989 110.011 60.2841C110.011 62.7322 109.246 64.8743 107.716 66.4043C106.339 67.6284 104.656 68.3934 102.973 68.3934ZM102.514 55.541C102.361 55.541 102.361 55.541 102.208 55.541C102.055 55.541 101.902 55.541 101.902 55.694C100.219 56.612 99.1476 58.4481 99.1476 60.4371C99.1476 63.1912 101.137 65.1803 102.82 65.1803C103.738 65.1803 104.656 64.7213 105.421 64.1093C106.339 63.1912 106.798 61.8142 106.798 60.2841C106.798 58.9071 106.186 57.53 105.268 56.765C104.656 56.153 103.738 55.541 102.514 55.541Z" fill="#3BC3FC"/>
<path d="M121.945 67.4754C121.18 67.4754 120.415 66.8634 120.415 66.0984C120.109 64.4153 119.956 62.5792 119.956 60.2842C119.956 59.2131 119.956 58.1421 119.956 57.2241C118.885 58.1421 117.661 59.0601 116.131 59.6721C115.366 59.9781 114.295 59.6721 113.989 58.9071C113.683 58.1421 113.989 57.071 114.754 56.765C116.437 56 117.967 54.623 119.497 53.0929C119.803 52.7869 120.109 52.4809 120.568 52.1749C121.027 51.7159 121.792 51.5629 122.404 51.8689C123.016 52.1749 123.322 52.7869 123.322 53.3989C123.322 54.3169 123.322 55.082 123.169 56C123.169 57.3771 123.016 58.9071 123.016 60.4372C123.016 62.4262 123.169 64.1093 123.322 65.6394C123.475 66.5574 122.863 67.3224 121.945 67.4754C122.098 67.4754 121.945 67.4754 121.945 67.4754Z" fill="#3BC3FC"/>
<path d="M134.033 66.2514C133.268 66.2514 132.656 65.7924 132.503 65.0274C131.891 62.8853 131.585 60.5902 131.585 57.5301L130.82 58.1421C130.055 58.7541 129.137 58.6011 128.525 57.9891C127.913 57.2241 128.066 56.3061 128.678 55.694L129.443 55.082C130.361 54.317 131.279 53.552 132.044 52.7869C132.503 52.3279 133.268 52.1749 133.88 52.4809C134.492 52.7869 134.951 53.399 134.798 54.011C134.798 55.082 134.798 56.1531 134.798 57.2241C134.798 59.9782 135.104 62.1203 135.563 64.1093C135.869 65.0274 135.257 65.7924 134.492 66.0984C134.339 66.2514 134.186 66.2514 134.033 66.2514Z" fill="#3BC3FC"/>
<path d="M53.5519 91.0382H52.6338C51.7158 91.0382 50.9508 90.2732 50.9508 89.3552C50.9508 88.4372 51.7158 87.6721 52.6338 87.6721H53.2459C53.7049 87.0601 54.4699 84.918 54.4699 83.235C54.4699 81.0929 53.0928 80.6339 52.0218 80.6339C51.7158 80.6339 51.2568 80.6339 51.1038 80.7869C50.3388 81.2459 49.2677 80.7869 48.9617 80.0219C48.5027 79.2568 48.9617 78.1858 49.7267 77.8798C50.4918 77.5738 51.2568 77.2678 52.1748 77.2678C54.9289 77.2678 57.836 79.1038 57.836 83.082C57.683 85.9891 56.306 91.0382 53.5519 91.0382Z" fill="#3BC3FC"/>
<path d="M67.9344 93.6394C67.1694 93.6394 66.4043 93.0273 66.4043 92.2623C65.9453 89.5082 65.7923 86.7541 65.7923 83.694C65.7923 83.235 65.7923 82.776 65.7923 82.164C64.7213 82.776 63.6502 83.235 62.5792 83.541C61.6612 83.847 60.7431 83.388 60.5901 82.623C60.2841 81.858 60.7431 80.7869 61.5082 80.6339C63.4972 80.0219 65.1803 79.1039 66.7103 78.0328C67.1693 77.7268 67.9344 77.5738 68.3934 77.8798C69.0054 78.1858 69.3114 78.7978 69.1584 79.4099C69.0054 80.9399 69.0054 82.317 69.0054 83.694C69.0054 86.6011 69.1584 89.3552 69.6174 91.8033C69.7704 92.7213 69.1584 93.4864 68.2404 93.6394C68.0874 93.6394 68.0874 93.6394 67.9344 93.6394Z" fill="#3BC3FC"/>
<path d="M79.4099 92.4154C78.6448 92.4154 77.8798 91.8033 77.8798 91.0383C77.5738 88.5902 77.4208 86.1421 77.4208 83.694C77.4208 83.388 77.4208 82.929 77.4208 82.623C76.9618 82.929 76.3497 83.388 75.7377 83.694C74.9727 84.1531 74.0547 84.0001 73.4426 83.235C72.9836 82.47 73.1366 81.552 73.9017 80.9399C75.4317 80.0219 76.6558 79.1039 77.8798 78.3389C78.3388 78.0328 78.9508 77.8798 79.5629 78.1858C80.1749 78.4919 80.4809 78.9509 80.4809 79.5629C80.6339 80.9399 80.6339 82.47 80.6339 83.847C80.6339 86.1421 80.6339 88.4372 80.9399 90.7323C81.0929 91.6503 80.4809 92.4154 79.5629 92.5684C79.5629 92.4154 79.4099 92.4154 79.4099 92.4154Z" fill="#3BC3FC"/>
<path d="M92.8744 92.2623H92.7214C88.7432 92.1093 86.2952 88.2841 86.2952 84.765C86.2952 82.3169 87.3662 79.8688 89.3553 78.1858C89.6613 77.8798 90.1203 77.7268 90.5793 77.4208C91.0383 77.2677 91.4973 77.1147 91.9564 77.1147C94.0984 76.9617 96.0875 77.5738 97.6176 78.9508C99.1476 80.3279 100.066 82.3169 100.219 84.306C100.219 86.6011 99.4536 88.7432 97.9236 90.2732C96.3935 91.4973 94.7105 92.2623 92.8744 92.2623ZM92.5684 80.3279C92.4154 80.3279 92.2624 80.3279 92.1094 80.3279C91.9564 80.3279 91.8034 80.3279 91.6504 80.4809C91.4974 80.4809 91.4973 80.6339 91.3443 80.6339C90.1203 81.5519 89.5083 83.082 89.5083 84.765C89.5083 86.7541 90.8853 89.0492 92.8744 89.0492C93.7924 89.0492 94.7105 88.5902 95.4755 87.9781C96.3935 87.0601 96.8525 85.8361 96.8525 84.459C96.8525 83.388 96.2405 82.1639 95.3225 81.3989C94.7105 80.9399 93.7924 80.3279 92.5684 80.3279Z" fill="#3BC3FC"/>
<path d="M110.47 91.3443C110.317 91.3443 110.164 91.3443 110.011 91.3443C106.798 91.0383 104.503 87.3662 104.656 84.0001C104.656 81.552 105.88 79.4099 107.716 78.0328C108.481 77.4208 109.552 77.1148 110.47 77.1148C112 77.1148 113.53 77.7268 114.754 78.9509C116.131 80.3279 117.049 82.164 117.049 84.0001C117.049 86.1421 116.284 88.1312 114.754 89.6613C113.683 90.7323 112.153 91.3443 110.47 91.3443ZM110.776 80.3279C110.317 80.3279 110.011 80.4809 109.705 80.6339C108.634 81.399 108.022 82.623 108.022 84.0001C108.022 85.8361 109.246 87.9782 110.47 87.9782C111.235 87.9782 112.153 87.6722 112.918 87.0602C113.683 86.2951 114.142 85.0711 114.142 83.847C114.142 82.929 113.683 81.858 112.765 81.0929C112 80.6339 111.388 80.3279 110.776 80.3279Z" fill="#3BC3FC"/>
<path d="M126.535 90.7323C126.382 90.7323 126.382 90.7323 126.229 90.7323C123.322 90.5793 121.027 88.1312 120.568 84.7651C120.109 82.317 120.874 79.5629 122.557 77.7268C123.781 76.1968 125.464 75.4318 127.147 75.4318C127.3 75.4318 127.3 75.4318 127.453 75.4318C130.361 75.5848 133.727 79.1039 133.574 83.541C133.574 85.6831 132.656 87.6722 131.126 89.0492C129.749 90.1203 128.218 90.7323 126.535 90.7323ZM127.147 78.6449C126.229 78.6449 125.464 79.1039 124.852 79.8689C123.934 81.093 123.475 82.776 123.628 84.4591C123.934 86.4482 125.158 87.5192 126.382 87.6722C127.453 87.6722 128.218 87.2132 128.677 86.7542C129.596 85.9891 130.055 84.7651 130.208 83.541C130.208 80.7869 128.218 78.6449 127.147 78.6449Z" fill="#3BC3FC"/>
<path d="M77.4208 112.306C76.5027 112.306 75.8907 111.694 75.7377 110.776C75.7377 110.164 75.7377 109.399 75.7377 108.634C75.7377 107.104 75.7377 105.727 75.8907 104.197C74.5137 104.809 73.1366 105.268 71.6066 105.421C70.6885 105.574 69.9235 104.962 69.7705 104.044C69.6175 103.126 70.2295 102.361 71.1476 102.208C73.1366 101.902 75.1257 100.984 76.8088 100.066C77.2678 99.7596 77.8798 99.7596 78.4918 100.066C78.9508 100.372 79.2568 100.984 79.2568 101.596V102.055C79.1038 104.197 78.9508 106.492 78.9508 108.634C78.9508 109.246 78.9508 109.858 78.9508 110.623C79.1038 111.388 78.4918 112.153 77.4208 112.306C77.5738 112.306 77.5738 112.306 77.4208 112.306Z" fill="#3BC3FC"/>
<path d="M92.8743 114.448C92.1092 114.448 91.3442 113.836 91.1912 112.918C91.0382 110.317 90.8852 107.563 90.7322 105.115C89.8142 105.574 88.8961 106.033 87.9781 106.492C87.2131 106.798 86.142 106.492 85.836 105.727C85.53 104.962 85.836 103.891 86.601 103.585C88.1311 102.973 89.8142 102.055 91.1912 100.984C91.6502 100.678 92.2622 100.525 92.8743 100.831C93.3333 101.137 93.7923 101.596 93.7923 102.208C93.9453 105.421 94.0983 109.093 94.4043 112.612C94.5573 113.53 93.9453 114.448 92.8743 114.448C92.8743 114.448 93.0273 114.448 92.8743 114.448Z" fill="#3BC3FC"/>
<path d="M105.115 111.847C104.503 111.847 103.891 111.541 103.585 110.929C102.667 108.94 102.361 106.798 102.361 104.962C102.361 101.137 104.044 97.3115 108.022 97.3115C112.306 97.3115 114.601 101.596 114.601 105.421C114.601 106.645 114.448 107.716 113.989 108.787C113.683 109.552 112.765 110.011 111.847 109.705C111.082 109.399 110.623 108.481 110.929 107.563C111.235 106.951 111.235 106.186 111.235 105.421C111.235 103.432 110.317 100.525 107.869 100.525C105.421 100.525 105.421 104.809 105.421 104.962C105.421 106.492 105.727 108.022 106.492 109.705C106.798 110.47 106.492 111.541 105.574 111.847C105.421 111.694 105.268 111.847 105.115 111.847Z" fill="#3BC3FC"/>
<path d="M119.803 105.574C118.885 105.574 118.12 104.809 118.12 103.891V102.667C118.12 100.525 118.12 95.4755 122.71 95.4755C125.311 95.4755 126.229 97.0055 126.841 97.9235C126.994 98.0766 127.147 98.3826 127.3 98.6886C127.759 99.4536 127.759 100.372 126.994 100.984C126.229 101.443 125.311 101.443 124.699 100.678C124.393 100.372 124.24 100.066 124.087 99.6066C123.628 98.8416 123.628 98.6886 122.71 98.6886C122.098 98.6886 121.333 98.6886 121.333 102.667V103.891C121.333 104.809 120.568 105.574 119.803 105.574Z" fill="#3BC3FC"/>
<path d="M73.5955 15.4536C69.3113 15.3006 65.9452 15.3006 63.3441 15.3006C60.8961 15.3006 58.601 15.3006 56.4589 15.4536C55.8469 15.4536 55.0818 14.9946 54.9288 14.3825C54.6228 13.7705 54.9288 13.0055 55.3879 12.5465C57.989 10.4044 60.437 8.10933 62.8851 5.96725C65.0272 4.13118 67.0163 2.29512 69.1583 0.459051C69.7704 3.49772e-05 70.3824 -0.15297 70.8414 0.15304C71.4534 0.306046 71.7594 0.918068 71.9124 1.37708C72.3715 5.20222 73.4425 9.02736 75.1256 13.1585C75.2786 13.6175 75.2786 14.2295 74.9726 14.6886C74.6665 15.1476 74.2075 15.4536 73.5955 15.4536ZM63.3441 11.9345C65.4862 11.9345 68.0873 11.9345 71.1474 12.0875C70.2294 9.63938 69.6174 7.19129 69.0053 4.7432C67.6283 5.96725 66.2512 7.19129 64.8742 8.41534C63.4971 9.63938 62.1201 10.8634 60.743 12.0875C61.8141 11.9345 62.5791 11.9345 63.3441 11.9345Z" fill="#3BC3FC"/>
<path d="M143.366 29.3771C142.754 29.3771 142.295 29.0711 141.989 28.6121C132.35 12.2405 117.508 4.59019 95.6284 4.59019C88.5901 4.59019 81.0928 6.12024 72.2185 9.48636C71.4535 9.79238 70.3825 9.33336 70.0764 8.56833C69.7704 7.8033 70.2295 6.73227 70.9945 6.42626C80.3278 2.90713 88.1311 1.37708 95.4754 1.37708C118.426 1.37708 134.492 9.79238 144.59 26.929C145.049 27.694 144.743 28.612 143.978 29.0711C143.978 29.3771 143.672 29.3771 143.366 29.3771Z" fill="#3BC3FC"/>
<path d="M139.235 125.924C138.776 125.924 138.317 125.771 138.011 125.312C137.093 124.241 136.175 123.322 135.41 122.251C133.115 119.65 130.667 117.049 128.525 114.295C128.066 113.836 128.066 113.224 128.372 112.612C128.678 112 129.137 111.694 129.749 111.694C135.869 111.388 142.142 109.858 148.109 108.328C148.721 108.175 149.333 108.328 149.792 108.94C150.251 109.399 150.251 110.164 149.945 110.776C148.568 113.224 147.038 115.519 145.508 117.814C143.978 120.262 142.295 122.71 140.918 125.159C140.612 125.618 140.153 125.924 139.694 125.924C139.388 125.924 139.388 125.924 139.235 125.924ZM132.962 114.754C134.492 116.59 136.175 118.426 137.858 120.262C138.317 120.721 138.623 121.18 139.082 121.639C140.306 119.65 141.53 117.814 142.601 115.978C143.366 114.754 144.131 113.683 144.896 112.459C141.071 113.377 137.093 114.295 132.962 114.754Z" fill="#3BC3FC"/>
<path d="M93.0272 134.339C80.0217 134.339 68.0873 130.667 58.754 123.781C57.9889 123.322 57.8359 122.251 58.448 121.486C58.907 120.721 59.978 120.568 60.743 121.18C69.6174 127.607 80.7868 131.126 93.1802 131.126C105.268 131.126 123.781 126.536 132.197 119.344C132.809 118.732 133.88 118.885 134.492 119.497C135.104 120.109 134.951 121.18 134.339 121.792C125.005 129.596 106.033 134.339 93.0272 134.339Z" fill="#3BC3FC"/>
</g>
<defs>
<clipPath id="clip0">
<rect width="149.945" height="140" fill="white"/>
</clipPath>
</defs>
</svg>
