<svg width="127" height="140" viewBox="0 0 127 140" fill="none" xmlns="http://www.w3.org/2000/svg">
<g clip-path="url(#clip0)">
<path d="M45.5629 28.2119C45.1656 28.2119 44.7682 28.0795 44.5033 27.8146C44.2384 27.5497 44.106 27.1523 44.106 26.755V1.45695C44.106 0.662252 44.7682 0 45.5629 0C52.7152 0 60 0 66.8874 0.13245C72.5828 0.13245 78.4106 0.264901 84.2384 0.264901H86.4901C87.2848 0.264901 87.947 0.794702 87.947 1.5894C88.4768 7.15232 88.4768 12.7152 88.4768 18.1457C88.4768 20.9272 88.4768 23.7086 88.6093 26.4901C88.6093 26.8874 88.4768 27.2848 88.2119 27.5497C87.947 27.8146 87.5497 27.947 87.1523 27.947C81.0596 28.0795 74.8344 28.0795 68.7417 28.0795C61.1921 28.0795 53.245 28.0795 45.5629 28.2119ZM47.0199 2.91391V25.1656C54.3046 25.0331 61.7219 25.0331 68.7417 25.0331C74.3046 25.0331 80 25.0331 85.5629 24.9007C85.5629 22.649 85.5629 20.2649 85.5629 18.0132C85.5629 13.1126 85.5629 7.94702 85.1656 3.04636H84.2384C78.4106 3.04636 72.5828 3.04636 66.8874 2.91391C60.3974 3.04636 53.6424 2.91391 47.0199 2.91391Z" fill="#3BC3FC"/>
<path d="M46.6227 16.0265C45.828 16.0265 45.1658 15.3642 45.1658 14.5695C45.1658 13.7748 45.828 13.1126 46.6227 13.1126C53.775 13.1126 61.1923 12.8477 68.3446 12.4503C74.3048 12.1854 80.3976 11.9205 86.4903 11.9205C87.285 11.9205 87.9472 12.5828 87.9472 13.3775C87.9472 14.1722 87.285 14.8344 86.4903 14.8344C80.53 14.9669 74.4373 15.2318 68.477 15.4967C61.3247 15.7616 53.9075 16.0265 46.6227 16.0265Z" fill="#3BC3FC"/>
<path d="M56.4239 9.9338H50.5961C49.8014 9.9338 49.1392 9.27155 49.1392 8.47685C49.1392 7.68215 49.8014 7.0199 50.5961 7.0199H56.4239C57.2186 7.0199 57.8809 7.68215 57.8809 8.47685C57.8809 9.27155 57.2186 9.9338 56.4239 9.9338Z" fill="#3BC3FC"/>
<path d="M50.8606 21.8543C50.0659 21.8543 49.5361 21.3245 49.4037 20.5298C49.2712 19.7351 49.9335 18.9404 50.7282 18.9404C51.3904 18.8079 52.3176 18.8079 53.2447 18.9404C53.6421 18.9404 53.907 18.9404 54.3043 18.9404C54.9666 18.9404 55.4964 18.9404 56.0262 18.8079C56.8209 18.6755 57.6156 19.2053 57.748 20C57.8805 20.7947 57.3507 21.5894 56.556 21.7219C55.8937 21.8543 55.099 21.8543 54.3043 21.8543C53.907 21.8543 53.5096 21.8543 53.1123 21.8543C52.45 21.8543 51.6553 21.8543 50.9931 21.8543C50.8606 21.8543 50.8606 21.8543 50.8606 21.8543Z" fill="#3BC3FC"/>
<path d="M38.0134 105.431C37.2186 105.431 36.5564 104.768 36.5564 103.974C36.5564 103.311 36.5564 102.782 36.5564 102.119C36.5564 88.7418 47.4173 88.3444 53.9074 87.9471C56.2915 87.8146 59.3379 87.6822 59.3379 86.8875C59.3379 84.3709 58.2782 83.7087 56.2915 82.5166C53.1127 80.5299 48.8743 77.8809 48.8743 66.2252C48.8743 55.3643 50.3312 45.563 67.6822 45.563C82.5167 45.563 82.5167 55.6292 82.5167 65.4305C82.5167 76.0266 78.5431 78.6756 75.6292 80.5299C73.6425 81.7219 72.5829 82.5166 72.5829 85.2981C72.5829 88.6093 74.8345 89.0067 80.1326 89.2716C85.6955 89.5365 93.1127 89.9338 93.1127 99.7352C93.1127 100.133 93.1127 100.397 93.1127 100.795C93.1127 101.192 93.1127 101.457 93.1127 101.722C93.1127 102.517 92.4504 103.179 91.6557 103.179C90.861 103.179 90.1988 102.517 90.1988 101.722C90.1988 101.325 90.1988 101.06 90.1988 100.662C90.1988 100.265 90.1988 100 90.1988 99.6027C90.1988 92.9802 86.3577 92.4504 80.0001 92.0531C75.3643 91.7882 69.669 91.5233 69.669 85.1656C69.669 80.6623 72.0531 79.2054 74.1723 77.8809C76.9537 76.159 79.7352 74.3047 79.7352 65.2981C79.7352 54.1723 79.2054 48.3444 67.9471 48.3444C52.8478 48.4769 51.6557 55.8941 51.6557 66.2252C51.6557 76.2915 54.8345 78.2782 57.7484 80.0001C59.8676 81.3246 62.2518 82.7815 62.2518 86.8875C62.2518 90.5961 58.0133 90.7285 53.9074 90.861C45.6955 91.2583 39.3379 92.318 39.3379 101.987C39.3379 102.517 39.3379 103.179 39.3379 103.709C39.4703 104.768 38.8081 105.431 38.0134 105.431Z" fill="#3BC3FC"/>
<path d="M65.8275 99.2053C59.8673 99.2053 54.4368 96.159 51.258 90.9934C50.8606 90.3312 50.9931 89.404 51.7878 89.0066C52.45 88.6093 53.3772 88.7417 53.7745 89.5365C56.4236 93.7749 60.9269 96.4239 65.96 96.4239C69.4037 96.4239 75.2315 94.3047 76.2911 91.2583C76.556 90.4636 77.3507 90.0662 78.1454 90.3312C78.9401 90.5961 79.3375 91.3908 79.0726 92.1855C77.3507 96.6888 70.3308 99.2053 65.8275 99.2053Z" fill="#3BC3FC"/>
<path d="M50.0664 66.2253C49.5366 66.2253 49.0068 65.8279 48.7419 65.2981C48.477 64.5034 48.7419 63.7087 49.5366 63.3114C58.1459 59.6027 60.9273 53.2451 60.9273 53.2451C61.0598 52.8478 61.4571 52.4504 61.987 52.318C62.5168 52.1855 62.9141 52.318 63.3115 52.7153C66.2254 55.3643 69.934 55.8941 72.4505 55.8941C74.9671 55.8941 77.3512 55.3643 79.7353 54.4372C80.53 54.1723 81.3247 54.4372 81.7221 55.2319C81.987 56.0266 81.722 56.8213 80.9273 57.2186C78.2783 58.2782 75.3644 58.9405 72.583 58.9405C68.8744 58.9405 65.5631 58.0133 62.9141 56.159C61.4572 58.5431 57.881 63.1789 50.8611 66.2253C50.4638 66.0928 50.1989 66.2253 50.0664 66.2253Z" fill="#3BC3FC"/>
<path d="M25.033 64.9007C24.7681 64.9007 24.5032 64.9007 24.2383 64.9007C19.9998 64.5034 17.2184 59.7352 16.9535 55.4967C16.6886 50.7285 18.9402 45.2981 23.9734 44.3709C24.2383 44.3709 24.5032 44.2385 24.6356 44.2385C27.0197 44.106 29.5363 45.0332 31.3906 46.8875C33.6422 49.0067 34.9667 52.1855 34.8343 55.0994C34.7018 57.8808 33.5098 60.6623 31.3906 62.5166C29.5363 63.9736 27.2846 64.9007 25.033 64.9007ZM25.1654 47.1524C25.033 47.1524 24.9005 47.1524 24.7681 47.1524C24.6356 47.1524 24.5032 47.1524 24.5032 47.1524C21.1919 47.8146 19.6025 51.7881 19.8674 55.2318C19.9998 58.2782 21.9866 61.7219 24.5032 61.8544C26.225 61.9868 28.0793 61.3246 29.4038 60.1325C30.9932 58.808 31.7879 56.8212 31.9204 54.8345C31.9204 52.7153 30.9932 50.4636 29.4038 48.8742C28.4767 48.0795 27.0197 47.1524 25.1654 47.1524Z" fill="#3BC3FC"/>
<path d="M11.7881 77.2186C11.2583 77.2186 10.7285 76.9537 10.4636 76.4239C10.1987 75.7617 9.93384 75.0994 9.93384 74.4372C9.93384 67.6822 14.967 66.6226 18.4107 65.8279C21.0597 65.2981 21.7219 64.9007 21.7219 64.2385C21.7219 64.106 21.7219 63.8411 21.7219 63.7087C21.7219 63.4438 21.7219 63.1789 21.7219 62.914C21.7219 62.1193 22.3842 61.457 23.1789 61.457C23.9736 61.457 24.6358 62.1193 24.6358 62.914C24.6358 63.1789 24.6358 63.3113 24.6358 63.5762C24.6358 63.8411 24.6358 64.106 24.6358 64.3709C24.6358 67.5497 21.5895 68.212 19.0729 68.8742C15.2319 69.8014 12.9802 70.5961 12.9802 74.5696C12.9802 74.8345 12.9802 74.967 13.1126 75.2319C13.51 76.0266 13.2451 76.8213 12.4504 77.2186C12.1855 77.2186 12.053 77.2186 11.7881 77.2186Z" fill="#3BC3FC"/>
<path d="M37.3511 76.2913C36.5564 76.2913 35.8942 75.6291 35.8942 74.8344V73.5099C35.8942 70.7284 34.7021 70.4635 32.5829 70.0662C30.5962 69.6688 27.5498 69.0066 27.5498 64.9006C27.5498 64.2384 27.5498 63.7086 27.6823 63.0463V62.649C27.8147 61.8543 28.477 61.192 29.2717 61.3245C30.0664 61.4569 30.7286 62.1192 30.5962 62.9139V63.3112C30.5962 63.841 30.4637 64.3708 30.4637 64.7682C30.4637 66.49 31.126 66.6225 33.1127 67.0198C35.2319 67.4172 38.8081 68.2119 38.8081 73.3774V74.7019C38.8081 75.6291 38.1458 76.2913 37.3511 76.2913Z" fill="#3BC3FC"/>
<path d="M25.298 72.1855C22.2516 72.1855 19.3377 70.4636 17.8808 67.9471C17.4834 67.2848 17.7483 66.3577 18.4106 65.9603C19.0728 65.563 20 65.8279 20.3973 66.4901C21.3245 68.212 23.3112 69.2716 25.298 69.2716C27.1523 69.2716 29.0066 68.0795 29.404 67.5497C29.6689 66.8875 30.4636 66.4901 31.1258 66.755C31.9205 66.8875 32.4503 67.8146 32.1854 68.6093C31.7881 70.0663 28.3444 72.1855 25.298 72.1855Z" fill="#3BC3FC"/>
<path d="M100 63.7086C99.8676 63.7086 99.8676 63.7086 99.7351 63.7086C97.7484 63.7086 95.894 62.7815 94.4371 61.1921C92.5828 59.2053 91.6556 56.2914 91.7881 53.1126C92.053 48.8742 94.4371 45.4305 98.1457 44.3709C98.6755 44.2384 99.3378 44.106 100 44.106C100 44.106 100 44.106 100.132 44.106C104.503 44.106 108.212 47.8146 108.609 52.5828C108.874 55.4967 107.682 58.8079 105.563 60.9272C104.106 62.7815 102.119 63.7086 100 63.7086ZM100.132 47.0199C99.7351 47.0199 99.3377 47.0199 98.9404 47.1523C96.0265 47.947 94.8344 50.8609 94.702 53.1126C94.702 55.6291 95.3642 57.7483 96.6887 59.0728C97.6159 60 98.808 60.6623 100 60.6623C101.722 60.6623 102.914 59.7351 103.709 58.9404C105.166 57.351 106.093 54.9669 105.96 52.8477C105.563 49.2715 102.649 47.0199 100.132 47.0199Z" fill="#3BC3FC"/>
<path d="M87.9472 76.0265C87.1525 76.0265 86.4902 75.3642 86.4902 74.5695C86.4902 74.1722 86.4902 73.9073 86.4902 73.5099C86.4902 73.1126 86.4902 72.8477 86.4902 72.4503C86.4902 67.1523 90.5962 66.2251 93.3776 65.5629C96.1591 64.9006 96.6889 64.6357 96.6889 63.4437C96.6889 63.3112 96.6889 63.0463 96.5565 62.9139C96.424 62.1192 96.8214 61.3245 97.6161 61.192C98.4108 61.0596 99.2055 61.4569 99.4704 62.2516C99.6028 62.649 99.6028 63.0463 99.6028 63.5761C99.6028 67.2847 96.2916 68.0794 93.9075 68.6092C90.8611 69.2715 89.2717 69.8013 89.2717 72.5828C89.2717 72.8477 89.2717 73.245 89.2717 73.5099C89.2717 73.9073 89.2717 74.3046 89.2717 74.702C89.4041 75.3642 88.7419 76.0265 87.9472 76.0265Z" fill="#3BC3FC"/>
<path d="M112.847 76.1589C112.053 76.1589 111.391 75.6291 111.391 74.8344C111.391 74.5695 111.391 74.3046 111.391 73.9072C111.391 73.5099 111.391 73.1125 111.391 72.7152C111.391 72.3178 111.391 71.9205 111.391 71.6556C111.391 68.3443 109.934 68.0794 107.02 67.6821C105.165 67.4172 102.251 67.0198 102.251 63.841C102.251 63.4437 102.251 63.1788 102.384 62.7814C102.384 62.5165 102.384 62.2516 102.384 61.9867C102.384 61.8543 102.384 61.8543 102.384 61.7218C102.251 60.9271 102.781 60.1324 103.576 60C104.371 59.8675 105.165 60.3973 105.298 61.192C105.298 61.4569 105.298 61.5894 105.298 61.8543C105.298 62.2516 105.298 62.649 105.165 62.9139C105.165 63.1788 105.165 63.4437 105.165 63.7086C105.165 64.1059 105.165 64.2384 107.417 64.6357C109.934 65.0331 114.304 65.5629 114.304 71.5231C114.304 71.9205 114.304 72.3178 114.304 72.7152C114.304 73.1125 114.304 73.3774 114.304 73.7748C114.304 74.0397 114.304 74.3046 114.304 74.437C114.304 75.3642 113.775 76.1589 112.847 76.1589Z" fill="#3BC3FC"/>
<path d="M100.265 71.2583C97.3509 71.2583 94.7019 70.0663 93.5099 68.0795C93.1125 67.4173 93.245 66.4901 93.9072 66.0928C94.5695 65.6954 95.4966 65.8279 95.894 66.4901C96.6887 67.6822 98.2781 68.3444 100.265 68.3444C102.252 68.3444 103.973 67.5497 105.166 66.0928C105.695 65.4305 106.622 65.4305 107.285 65.9603C107.947 66.4901 107.947 67.4173 107.417 68.0795C105.695 70.1987 103.179 71.2583 100.265 71.2583Z" fill="#3BC3FC"/>
<path d="M65.0332 134.702C64.9007 134.702 64.9007 134.702 64.7683 134.702C61.0597 134.57 58.2782 131.656 58.1458 127.815C58.0133 124.371 60.1325 121.325 63.3113 120.397C63.5762 120.265 63.9736 120.265 64.3709 120.265C66.2252 120.132 68.3444 120.927 69.9338 122.517C71.5232 124.106 72.318 126.225 72.1855 128.212C72.0531 132.185 68.4769 134.702 65.0332 134.702ZM64.2385 123.311C62.2517 123.841 61.1921 125.96 61.1921 127.815C61.1921 130.066 62.914 131.788 65.0332 131.788C67.0199 131.788 69.2716 130.331 69.404 128.079C69.5365 126.358 68.6093 125.166 67.9471 124.636C67.0199 123.709 65.6954 123.179 64.7683 123.179C64.5034 123.311 64.3709 123.311 64.2385 123.311Z" fill="#3BC3FC"/>
<path d="M79.4704 128.477C78.8081 128.477 78.1459 127.947 78.0134 127.285C77.881 126.49 78.4108 125.695 79.2055 125.563C99.3379 121.457 112.98 109.272 120.927 88.3444C121.192 87.5497 122.119 87.1523 122.782 87.4172C123.576 87.6821 123.974 88.6093 123.709 89.2715C115.364 111.391 101.06 124.238 79.7353 128.477C79.6029 128.477 79.4704 128.477 79.4704 128.477Z" fill="#3BC3FC"/>
<path d="M51.9204 128.609C51.788 128.609 51.788 128.609 51.6555 128.609C30.1986 125.033 15.3641 112.715 6.48996 90.9934C6.22506 90.1987 6.48996 89.404 7.28466 89.0066C8.07937 88.7417 8.87407 89.0066 9.27142 89.8013C17.7482 110.596 31.788 122.252 52.1853 125.695C52.98 125.828 53.5098 126.623 53.3774 127.417C53.2449 128.212 52.5827 128.609 51.9204 128.609Z" fill="#3BC3FC"/>
<path d="M125.033 95.2318C124.503 95.2318 123.974 94.9669 123.709 94.3047C123.046 92.8477 122.517 91.1259 122.119 89.5365C120.132 90.7285 118.146 91.9206 115.762 92.5828C114.967 92.8477 114.172 92.3179 113.907 91.5232C113.642 90.7285 114.172 89.9338 114.967 89.6689C117.483 89.0067 119.735 87.5497 121.987 86.0928L122.384 85.8279C122.781 85.563 123.311 85.5629 123.709 85.6954C124.106 85.9603 124.503 86.3577 124.503 86.755C124.901 89.0067 125.563 91.1259 126.358 92.9802C126.755 93.7749 126.358 94.5696 125.563 94.9669C125.43 95.2318 125.166 95.2318 125.033 95.2318Z" fill="#3BC3FC"/>
<path d="M5.16554 96.9536C5.03309 96.9536 4.76819 96.9536 4.63574 96.8212C3.84104 96.5563 3.57614 95.6291 3.84104 94.8344C4.63574 92.8476 5.16554 90.7284 5.43044 88.4768C5.56289 87.947 5.82779 87.5496 6.22514 87.4172C6.62249 87.1523 7.1523 87.1523 7.54965 87.4172L7.947 87.6821C10.3311 89.0066 12.5828 90.3311 15.0993 90.9933C15.894 91.1258 16.4238 92.0529 16.1589 92.8476C16.0265 93.6423 15.0993 94.1722 14.3046 93.9073C11.9205 93.245 9.8013 92.1854 7.81455 91.1258C7.4172 92.8477 7.01985 94.4371 6.35759 96.0265C6.35759 96.5563 5.69534 96.9536 5.16554 96.9536Z" fill="#3BC3FC"/>
<path d="M2.64901 79.0729C1.98675 79.0729 1.3245 78.6755 1.19205 77.8808C1.0596 77.2186 0.927152 76.5563 0.794702 75.8941C0.662252 75.0994 1.19205 74.3047 1.98675 74.1722C2.78146 74.0398 3.57616 74.5696 3.70861 75.3643C3.84106 76.0265 3.97351 76.5563 4.10596 77.2186C4.23841 78.0133 3.84106 78.808 3.04636 78.9404C2.78146 79.0729 2.64901 79.0729 2.64901 79.0729ZM1.45695 68.3444C0.662252 68.3444 0 67.6821 0 66.8874C0 66.2252 0 65.5629 0.13245 64.9007C0.13245 64.106 0.927152 63.4437 1.72185 63.5762C2.51656 63.5762 3.17881 64.3709 3.04636 65.1656C3.04636 65.8278 2.91391 66.4901 2.91391 67.0199C2.91391 67.6821 2.25166 68.3444 1.45695 68.3444ZM3.04636 57.6159C2.91391 57.6159 2.78146 57.6159 2.64901 57.6159C1.8543 57.351 1.45695 56.5563 1.5894 55.7616C1.72185 55.0994 1.98676 54.4371 2.11921 53.7749C2.38411 52.9802 3.17881 52.5828 3.97351 52.8477C4.76821 53.1126 5.16556 53.9073 4.90066 54.702C4.76821 55.3643 4.50331 55.8941 4.37086 56.5563C4.37086 57.2186 3.70861 57.6159 3.04636 57.6159ZM6.88742 47.5497C6.62252 47.5497 6.49007 47.5497 6.22517 47.4172C5.43046 47.0199 5.16556 46.2252 5.56291 45.4305C5.82781 44.7682 6.09272 44.2384 6.49007 43.5762C6.88742 42.9139 7.81457 42.5166 8.47682 42.9139C9.13907 43.3113 9.53642 44.2384 9.13907 44.9007C8.87417 45.4305 8.60927 46.0927 8.34437 46.6225C7.94702 47.2848 7.41722 47.5497 6.88742 47.5497ZM12.3179 38.2782C12.053 38.2782 11.7881 38.1457 11.5232 38.0133C10.8609 37.4835 10.7285 36.5563 11.1258 35.8941C11.5232 35.3643 11.9205 34.8345 12.3179 34.3047C12.8477 33.6424 13.7748 33.51 14.4371 34.0398C15.0993 34.5696 15.2318 35.4967 14.702 36.159C14.3046 36.6888 13.9073 37.2186 13.5099 37.7484C13.245 38.0133 12.7152 38.2782 12.3179 38.2782ZM19.3377 30.0662C18.9404 30.0662 18.543 29.9338 18.2781 29.6689C17.7483 29.1391 17.7483 28.2119 18.2781 27.5497C18.8079 27.0199 19.2053 26.6225 19.7351 26.2252C20.3974 25.6954 21.3245 25.6954 21.8543 26.3576C22.3841 27.0199 22.3841 27.947 21.7219 28.4768C21.1921 28.8742 20.7947 29.404 20.2649 29.8013C20.1325 29.9338 19.7351 30.0662 19.3377 30.0662ZM27.8146 23.3113C27.2848 23.3113 26.8874 23.0464 26.6225 22.649C26.2252 21.9868 26.3576 21.0596 27.0199 20.6623C27.5497 20.2649 28.2119 20 28.7417 19.6027C29.404 19.2053 30.3311 19.4702 30.7285 20.1325C31.1258 20.7947 30.8609 21.7219 30.1987 22.1192C29.6689 22.3841 29.1391 22.7815 28.6093 23.0464C28.3444 23.1788 28.0795 23.3113 27.8146 23.3113ZM37.4834 18.6755C36.8212 18.6755 36.2914 18.2782 36.0265 17.6159C35.7616 16.8212 36.1589 16.0265 36.9536 15.7616C37.6159 15.4967 38.2781 15.3643 38.9404 15.2318C39.7351 14.9669 40.5298 15.4967 40.7947 16.2914C41.0596 17.0861 40.5298 17.8808 39.7351 18.1457C39.0728 18.2782 38.543 18.5431 37.8808 18.6755C37.8808 18.6755 37.7483 18.6755 37.4834 18.6755Z" fill="#3BC3FC"/>
<path d="M125.033 73.7748H124.901C124.106 73.6424 123.444 72.9801 123.576 72.1854C123.576 71.5232 123.709 70.8609 123.709 70.1987C123.709 69.404 124.503 68.7417 125.298 68.8742C126.093 68.8742 126.755 69.6689 126.623 70.4636C126.623 71.1258 126.49 71.7881 126.49 72.4503C126.49 73.245 125.828 73.7748 125.033 73.7748ZM125.033 63.0464C124.238 63.0464 123.709 62.5166 123.576 61.7219C123.444 61.0596 123.444 60.3974 123.311 59.8675C123.179 59.0728 123.709 58.2781 124.503 58.1457C125.298 58.0132 126.093 58.543 126.225 59.3377C126.358 60 126.358 60.6622 126.49 61.3245C126.623 62.1192 125.96 62.9139 125.166 62.9139C125.166 63.0464 125.166 63.0464 125.033 63.0464ZM122.914 52.4503C122.252 52.4503 121.722 52.053 121.457 51.3907C121.325 50.7285 121.06 50.1987 120.927 49.5364C120.662 48.7417 121.06 47.947 121.854 47.6821C122.649 47.4172 123.444 47.8146 123.709 48.6093C123.974 49.2715 124.106 49.9338 124.238 50.4636C124.503 51.2583 123.974 52.053 123.179 52.3179C123.179 52.3179 123.046 52.4503 122.914 52.4503ZM119.073 42.2516C118.543 42.2516 118.013 41.9867 117.748 41.4569C117.483 40.9271 117.219 40.2649 116.954 39.7351C116.556 39.0728 116.821 38.1457 117.616 37.7483C118.278 37.351 119.205 37.6159 119.603 38.4106C119.868 39.0728 120.265 39.6026 120.53 40.2649C120.927 41.0596 120.53 41.8543 119.868 42.2516C119.47 42.2516 119.205 42.2516 119.073 42.2516ZM113.642 32.9801C113.245 32.9801 112.715 32.7152 112.45 32.3179C112.053 31.7881 111.656 31.2583 111.258 30.7285C110.728 30.0662 110.861 29.1391 111.523 28.6093C112.185 28.0795 113.113 28.2119 113.642 28.8742C114.04 29.404 114.437 29.9338 114.834 30.4636C115.364 31.1258 115.099 32.053 114.437 32.5828C114.172 32.8477 113.907 32.9801 113.642 32.9801ZM106.358 25.0331C105.96 25.0331 105.695 24.9007 105.43 24.6358C104.901 24.2384 104.503 23.8411 103.974 23.4437C103.311 22.9139 103.179 21.9868 103.709 21.3245C104.238 20.6622 105.166 20.5298 105.828 21.0596C106.358 21.4569 106.887 21.8543 107.417 22.3841C108.079 22.9139 108.079 23.8411 107.55 24.5033C107.152 24.7682 106.755 25.0331 106.358 25.0331ZM96.9537 19.6026C96.8212 19.6026 96.6888 19.6026 96.4239 19.4702C95.8941 19.3377 95.2318 19.0728 94.702 18.9404C93.9073 18.8079 93.3775 18.0132 93.6424 17.2185C93.7748 16.4238 94.5696 15.894 95.3643 16.1589C96.0265 16.2914 96.6888 16.5563 97.351 16.6887C98.1457 16.9536 98.5431 17.7483 98.2782 18.543C98.1457 19.2053 97.6159 19.6026 96.9537 19.6026Z" fill="#3BC3FC"/>
</g>
<defs>
<clipPath id="clip0">
<rect width="126.755" height="140" fill="white"/>
</clipPath>
</defs>
</svg>
