<svg width="20" height="16" viewBox="0 0 20 16" fill="none" xmlns="http://www.w3.org/2000/svg">
<path d="M11 3.35056V8.992C11 9.54864 10.5523 9.99988 10 9.99988C9.44772 9.99988 9 9.54864 9 8.992V3.41409L7.20711 5.20698C6.81658 5.59751 6.18342 5.59751 5.79289 5.20698C5.40237 4.81646 5.40237 4.1833 5.79289 3.79277L9.29289 0.292771C9.67817 -0.0925072 10.301 -0.0984345 10.6935 0.279441L14.1935 3.64868C14.5914 4.0317 14.6035 4.66475 14.2204 5.06264C13.8374 5.46052 13.2044 5.47257 12.8065 5.08955L11 3.35056ZM2 8.99988V12.9999C2 13.5522 2.44772 13.9999 3 13.9999H17C17.5523 13.9999 18 13.5522 18 12.9999V8.99988H20V12.9999C20 14.6567 18.6569 15.9999 17 15.9999H3C1.34315 15.9999 0 14.6567 0 12.9999V8.99988H2Z" fill="#1466BF"/>
</svg>
